<?xml version="1.0" encoding="UTF-8" standalone="no"?>
<!DOCTYPE svg PUBLIC "-//W3C//DTD SVG 1.1//EN" "http://www.w3.org/Graphics/SVG/1.1/DTD/svg11.dtd">
<!-- Created with Vectornator (http://vectornator.io/) -->
<svg height="100%" stroke-miterlimit="10" style="fill-rule:nonzero;clip-rule:evenodd;stroke-linecap:round;stroke-linejoin:round;" version="1.1" viewBox="0 0 400 400" width="100%" xml:space="preserve" xmlns="http://www.w3.org/2000/svg" xmlns:vectornator="http://vectornator.io" xmlns:xlink="http://www.w3.org/1999/xlink">
<defs/>
<g id="Layer-2" vectornator:layerName="Layer 2">
<path d="M116.865 244.241C116.865 244.241 123.247 247.006 125.793 244.806C128.339 242.606 127.048 235.441 127.048 235.441L126.752 228.189L126.457 220.937L131.298 216.183L134.571 208.995L134.573 203.793L135.872 196.857L135.046 192.48L131.15 188.746L133.131 181.829L135.48 177.273L139.872 172.776L145.238 171.813L147.588 176.196L147.228 181.31L146.02 187.902L144.685 194.683C144.685 194.683 143.996 199.094 144.188 202.914C144.38 206.734 145.453 209.963 145.453 209.963C145.453 209.963 145.821 212.323 145.184 214.733C144.547 217.142 142.128 221.387 142.128 221.387L138.826 226.956L132.712 231.327L127.068 234.786" fill="none" opacity="1" stroke="#000000" stroke-linecap="butt" stroke-linejoin="miter" stroke-width="3.15"/>
<path d="M169.239 243.54L177.834 240.568L186.233 226.426L194.462 216.331L200.661 206.38L207.167 198.079L212.037 188.799L216.184 162.275L214.678 145.778L225.264 138.53L225.264 138.53L231.919 148.305L234.422 169.977L234.422 169.977L236.375 146.145C236.375 146.145 240.607 141.06 247.06 148.502C250.244 152.173 249.596 160.428 249.596 160.428L257.643 156.578L264.498 162.198L266.61 184.244L274.802 185.394L277.966 208.744L273.744 221.672L282.864 225.523L282.314 239.829L277.248 247.77L269.094 258.84L257.209 265.1L243.614 269.406L231.819 272.143L231.819 272.143L240.392 275.918L254.753 276.112L264.206 273.367L267.132 267.323C267.132 267.323 275.953 263.834 278.184 266.404C280.415 268.974 276.056 277.602 276.056 277.602L270.34 282.906L263.144 287.682L253.456 290.501L240.963 291.962L232.617 290.362L232.617 290.362L241.576 295.262L251.489 295.367C251.489 295.367 261.175 294.72 262.26 297.309C263.344 299.899 255.825 305.725 255.825 305.725L246.766 307.347L236.464 306.865L236.464 306.865L246.127 311.543L245.636 318.438L228.303 320.184L208.204 308.578L208.204 308.578L230.165 323.338L230.165 323.338L205.192 322.512L192.339 314.601L189.866 307.397L166.817 290.984L167.65 275.245L165.755 258.372L169.239 243.54Z" fill="none" opacity="1" stroke="#000000" stroke-linecap="butt" stroke-linejoin="miter" stroke-width="3.14568"/>
<path d="M116.157 244.644L115.57 224.413L111.699 215.661L108.39 208.695L107.643 201.377L106.925 193.572L107.502 186.227L109.263 179.531L111.798 172.633L118.417 163.705L124.628 157.442L135.938 150.963L142.36 150.719L152.543 151.409L159.613 154.033L166.106 160.485L170.162 169.494L172.233 176.785L170.81 189.947L169.656 201.12L166.43 208.519L164.613 214.43L163.064 221.87L161.656 230.392C161.656 230.392 162.05 235.883 164.233 237.71C166.416 239.536 169.388 243.553 169.388 243.553L164.422 253.93L166.03 260.257L167.248 270.078L166.356 283.268L167.615 291.78L188.647 306.872L192.071 316.718L201.483 322.383C201.483 322.383 194.916 323.273 189.727 325.011C184.538 326.75 182.882 328.398 180.726 329.338C178.571 330.277 176.774 330.004 172.13 330.979C167.486 331.953 166.445 332.212 162.151 333.235C157.857 334.257 154.953 335.07 154.953 335.07L148.568 335.271C148.568 335.271 142.355 335.112 137.152 333.441C131.949 331.769 132.75 332.129 127.756 328.586C122.761 325.042 117.174 319.266 117.174 319.266L113.314 315.687L105.403 306.945C105.403 306.945 102.527 303.972 100.873 300.419C99.2182 296.865 98.7854 292.73 98.7854 292.73L96.6928 286.505L95.6304 278.114L95.6932 270.949L96.9721 264.667L99.82 260.819L103.971 253.772L109.212 247.797L116.157 244.644Z" fill="none" opacity="1" stroke="#000000" stroke-linecap="butt" stroke-linejoin="miter" stroke-width="3.15"/>
<path d="M143.477 151.813C143.477 151.813 140.094 147.514 142.354 139.187C144.614 130.86 147.928 124.843 152.516 118.505C157.104 112.168 160.707 113.837 160.707 113.837C160.707 113.837 172.548 105.508 178.775 107.289C185.001 109.069 185.613 120.959 185.613 120.959L169.494 149.749C169.494 149.749 175.697 155.788 180.806 172.564C185.916 189.339 189.933 216.852 189.933 216.852L179.376 240.578" fill="none" opacity="1" stroke="#000000" stroke-linecap="butt" stroke-linejoin="miter" stroke-width="3.15"/>
</g>
</svg>
